<svg xmlns="http://www.w3.org/2000/svg" width="30" height="30" viewBox="0 0 40 40">
  <defs>
    <style>
      .cls-1 {
        fill: #3c434a;
        fill-rule: evenodd;
      }
    </style>
  </defs>
  <path id="Icon-01" class="cls-1" d="M178.516,498.547a32.552,32.552,0,0,0-6.563-.547,17.951,17.951,0,0,0-7.109,1.367,17.653,17.653,0,0,0-5.391,3.477A28.415,28.415,0,0,0,155.312,508h-7.89a3.739,3.739,0,0,0-1.953.625,3.632,3.632,0,0,0-1.407,1.406l-3.828,7.735a1.64,1.64,0,0,0-.234.859,1.868,1.868,0,0,0,1.875,1.875h7.266l-0.86,1.641a2.765,2.765,0,0,0-.234,1.093,2.432,2.432,0,0,0,.7,1.8l4.219,4.219a2.432,2.432,0,0,0,1.8.7,2.765,2.765,0,0,0,1.093-.234l1.641-.86v7.266A1.868,1.868,0,0,0,159.375,538a1.64,1.64,0,0,0,.859-0.234l7.657-3.828a3.482,3.482,0,0,0,1.484-1.407,3.739,3.739,0,0,0,.625-1.953v-7.89a25.064,25.064,0,0,0,7.344-7.032A16.929,16.929,0,0,0,180,506.047a32.552,32.552,0,0,0-.547-6.563,1.107,1.107,0,0,0-.937-0.937h0ZM142.891,518l3.437-6.8a1.106,1.106,0,0,1,1.094-.7h6.64q-0.936,1.953-3.75,7.5h-7.421ZM166.8,531.672l-6.8,3.437v-7.5q4.14-2.03,7.5-3.671v6.64a1.106,1.106,0,0,1-.7,1.094h0Zm-12.031-4.219-4.219-4.141q4.922-10,6.875-13.984a24.045,24.045,0,0,1,4.14-5,14.629,14.629,0,0,1,4.766-2.89,16.322,16.322,0,0,1,5.625-.938,34.858,34.858,0,0,1,5.235.312,34.858,34.858,0,0,1,.312,5.235,15.072,15.072,0,0,1-2.148,8.086,21.267,21.267,0,0,1-6.758,6.445q-3.2,1.641-13.828,6.875h0Zm8.984-18.2a5.068,5.068,0,1,0,1.484-3.516A4.8,4.8,0,0,0,163.75,509.25Zm2.5,0a2.534,2.534,0,1,1,.742,1.758A2.406,2.406,0,0,1,166.25,509.25Z" transform="translate(-140 -498)"/>
</svg>
