<svg xmlns="http://www.w3.org/2000/svg" width="30" height="30" viewBox="0 0 45 40">
  <defs>
    <style>
      .cls-1 {
        fill: #3c434a;
        fill-rule: evenodd;
      }
    </style>
  </defs>
  <path id="Icon-02" class="cls-1" d="M336.453,518.547a7.411,7.411,0,0,0-1.875,1.094,4.468,4.468,0,0,1-1.328.82,0.728,0.728,0,0,1-1.016-.273q-1.563-2.031.313-10.313-10.626,1.953-12.813.156a0.816,0.816,0,0,1-.156-1.093,5.506,5.506,0,0,1,.9-1.485,8.723,8.723,0,0,0,1.132-1.875,5.508,5.508,0,0,0,.547-2.344,4.762,4.762,0,0,0-1.679-3.789A6.189,6.189,0,0,0,316.3,498a7.53,7.53,0,0,0-4.688,1.484,4.676,4.676,0,0,0-1.953,3.907,6.638,6.638,0,0,0,.547,2.617,7.28,7.28,0,0,0,1.055,1.875,3.293,3.293,0,0,1,.7,1.328,0.819,0.819,0,0,1-.43,1.055q-2.343,1.953-12.031-.391v26.953A35.388,35.388,0,0,0,307.781,538q6.719,0,6.719-4.219a5.114,5.114,0,0,0-1.25-2.773A5.251,5.251,0,0,1,312,528q0-2.5,3.672-2.5a4.441,4.441,0,0,1,2.93.781,2.267,2.267,0,0,1,.9,1.719,4.8,4.8,0,0,1-1.328,2.656,5.3,5.3,0,0,0-1.328,3.36,3.214,3.214,0,0,0,1.094,2.578,5.337,5.337,0,0,0,3.32,1.211,36.521,36.521,0,0,0,5.664-.274,55.166,55.166,0,0,1,5.625-.39q-1.954-6.952-.547-8.75a0.856,0.856,0,0,1,1.172-.352,5.069,5.069,0,0,1,1.6.859,9.944,9.944,0,0,0,2.032,1.172,5.794,5.794,0,0,0,2.383.586,4.571,4.571,0,0,0,2.812-.937,5.813,5.813,0,0,0,1.875-2.383,7.7,7.7,0,0,0,.625-3.086,6.807,6.807,0,0,0-1.484-4.414A4.784,4.784,0,0,0,339.109,518,6.564,6.564,0,0,0,336.453,518.547Zm-0.156,8.281a5.856,5.856,0,0,0-3.438-1.328,3.37,3.37,0,0,0-2.968,1.484,5.667,5.667,0,0,0-.938,3.516,40.519,40.519,0,0,0,.391,4.219,12.5,12.5,0,0,0-1.563.156q-1.1.156-1.914,0.234t-1.914.157q-1.095.077-1.875,0.078a6.363,6.363,0,0,1-1.445-.156,2.666,2.666,0,0,1-1.055-.469,0.776,0.776,0,0,1-.234-1.094,4.943,4.943,0,0,1,.9-1.445,8.621,8.621,0,0,0,1.172-1.836A5.2,5.2,0,0,0,322,528a4.4,4.4,0,0,0-1.758-3.594,7.1,7.1,0,0,0-4.57-1.406q-4.377,0-5.742,2.93t1.367,6.6a3.078,3.078,0,0,1,.7,1.25,1.114,1.114,0,0,1-.43.9,3.113,3.113,0,0,1-1.093.547,6.727,6.727,0,0,1-1.563.234q-0.9.039-1.836,0t-1.953-.156q-1.016-.117-1.758-0.235c-0.5-.078-0.951-0.144-1.367-0.2V513a35.716,35.716,0,0,0,4.1.508,25.179,25.179,0,0,0,3.945-.078,5.619,5.619,0,0,0,3.242-1.25,3.589,3.589,0,0,0,1.211-2.852,5.833,5.833,0,0,0-1.172-2.812,6,6,0,0,1-1.172-3.125,2.389,2.389,0,0,1,1.25-2.11,5.346,5.346,0,0,1,2.891-.781,4.693,4.693,0,0,1,1.211.156,3.548,3.548,0,0,1,1.054.469,2.523,2.523,0,0,1,.782.859,2.491,2.491,0,0,1,.312,1.25,5.469,5.469,0,0,1-1.328,2.891A5.85,5.85,0,0,0,317,509.562q0,5.08,12.344,3.36-0.234,2.266-.274,4.492a7.346,7.346,0,0,0,.938,3.906,3.239,3.239,0,0,0,3.008,1.68,5.637,5.637,0,0,0,2.89-1.25,5.835,5.835,0,0,1,3.2-1.25,2.464,2.464,0,0,1,2.11,1.094A4.458,4.458,0,0,1,342,524.25a4.229,4.229,0,0,1-.9,2.891,2.571,2.571,0,0,1-1.914,1.015A5.458,5.458,0,0,1,336.3,526.828Z" transform="translate(-299.5 -498)"/>
</svg>
