<svg xmlns="http://www.w3.org/2000/svg" width="30" height="30" viewBox="0 0 40 40">
  <defs>
    <style>
      .cls-1 {
        fill: #3c434a;
        fill-rule: evenodd;
      }
    </style>
  </defs>
  <path id="Icon-04" class="cls-1" d="M508.523,512.062a0.579,0.579,0,0,0-.429.157l-8.36,8.437-3.828-3.828a0.669,0.669,0,0,0-.859,0l-0.938.938a0.568,0.568,0,0,0,0,.859l5.157,5.156a0.573,0.573,0,0,0,.429.157,0.58,0.58,0,0,0,.43-0.157l9.766-9.765a0.571,0.571,0,0,0,0-.86l-0.938-.937A0.584,0.584,0,0,0,508.523,512.062Zm12.422,2.11a8.2,8.2,0,0,0-2.851-2.891,7.61,7.61,0,0,0-9.375-9.375,8.2,8.2,0,0,0-2.891-2.851,7.472,7.472,0,0,0-7.656,0,8.188,8.188,0,0,0-2.891,2.851,7.589,7.589,0,0,0-7.422,1.953,7.589,7.589,0,0,0-1.953,7.422,8.2,8.2,0,0,0-2.851,2.891,7.472,7.472,0,0,0,0,7.656,8.18,8.18,0,0,0,2.851,2.891,7.582,7.582,0,0,0,5.508,9.414,7.207,7.207,0,0,0,3.867-.039,8.188,8.188,0,0,0,2.891,2.851,7.472,7.472,0,0,0,7.656,0,8.2,8.2,0,0,0,2.891-2.851,7.364,7.364,0,0,0,3.906.039,7.6,7.6,0,0,0,5.469-9.414,8.356,8.356,0,0,0,2.07-1.758,7.711,7.711,0,0,0,1.367-2.305A7.583,7.583,0,0,0,520.945,514.172Zm-5.9,9.531,0.234,0.469a4.027,4.027,0,0,1,.2.547c0.078,0.261.142,0.482,0.2,0.664a7.324,7.324,0,0,1,.156.742,4.355,4.355,0,0,1,0,1.641,3.63,3.63,0,0,1-.273.9,6.99,6.99,0,0,1-.469.859,3.6,3.6,0,0,1-.742.821,5.1,5.1,0,0,1-1.641,1.25,3.449,3.449,0,0,1-1.758.312,9.031,9.031,0,0,1-1.718-.312,16.471,16.471,0,0,1-1.915-.7c-0.156.521-.261,0.847-0.312,0.976a6.445,6.445,0,0,1-.312.625,7.391,7.391,0,0,1-.43.7q-0.2.273-.508,0.664a4.085,4.085,0,0,1-.664.664,4.913,4.913,0,0,1-.82.508,4.153,4.153,0,0,1-1.055.352,6.326,6.326,0,0,1-2.422,0,3.407,3.407,0,0,1-1.055-.391q-0.468-.274-0.859-0.547a3.367,3.367,0,0,1-.7-0.664c-0.209-.261-0.379-0.482-0.508-0.664a4.135,4.135,0,0,1-.391-0.7c-0.13-.286-0.222-0.494-0.273-0.625s-0.156-.43-0.312-0.9a16.538,16.538,0,0,1-1.915.7,9.045,9.045,0,0,1-1.718.312,3.442,3.442,0,0,1-1.758-.312,5.074,5.074,0,0,1-1.641-1.25,8.814,8.814,0,0,1-.82-0.938,2.593,2.593,0,0,1-.469-0.976c-0.078-.338-0.144-0.664-0.195-0.977a3.94,3.94,0,0,1-.039-0.976,6.121,6.121,0,0,1,.117-0.86,6.052,6.052,0,0,1,.234-0.781q0.156-.429.235-0.625c0.051-.129.182-0.43,0.39-0.9-0.417-.156-0.691-0.26-0.82-0.312s-0.326-.129-0.586-0.234a3.374,3.374,0,0,1-.625-0.313c-0.156-.1-0.365-0.246-0.625-0.43a3.25,3.25,0,0,1-.625-0.546,8.329,8.329,0,0,1-.508-0.665,3.758,3.758,0,0,1-.429-0.781,5.717,5.717,0,0,1-.274-0.937,5.4,5.4,0,0,1-.117-1.133,4.874,4.874,0,0,1,.117-1.094,7.9,7.9,0,0,1,.274-0.937,2.9,2.9,0,0,1,.468-0.821q0.312-.39.547-0.664a3.394,3.394,0,0,1,.625-0.547q0.39-.272.664-0.429c0.182-.1.391-0.208,0.625-0.313s0.417-.182.547-0.234,0.377-.13.742-0.234a1.381,1.381,0,0,0-.156-0.391q-0.157-.312-0.234-0.469a3.8,3.8,0,0,1-.2-0.547c-0.078-.26-0.144-0.481-0.2-0.664a6.756,6.756,0,0,1-.156-0.742,4.355,4.355,0,0,1,0-1.641,3.56,3.56,0,0,1,.273-0.9,6.87,6.87,0,0,1,.469-0.859,3.619,3.619,0,0,1,.742-0.821,8.814,8.814,0,0,1,.938-0.82,2.593,2.593,0,0,1,.976-0.469q0.507-.117.977-0.195a4.09,4.09,0,0,1,.976-0.039,5.4,5.4,0,0,1,1.641.351c0.286,0.105.508,0.183,0.664,0.235a2.9,2.9,0,0,1,.508.234,1.03,1.03,0,0,0,.352.156q0.234-.78.312-0.976a6.556,6.556,0,0,1,.312-0.625,7.313,7.313,0,0,1,.43-0.7q0.195-.273.508-0.664a4.046,4.046,0,0,1,.664-0.664,4.913,4.913,0,0,1,.82-0.508,4.153,4.153,0,0,1,1.055-.352,6.326,6.326,0,0,1,2.422,0,3.407,3.407,0,0,1,1.055.391q0.468,0.274.859,0.547a3.442,3.442,0,0,1,.7.664q0.312,0.392.508,0.664a4.441,4.441,0,0,1,.391.7c0.129,0.287.221,0.5,0.273,0.625s0.156,0.43.312,0.9a1.348,1.348,0,0,0,.391-0.156l0.469-.234a3.924,3.924,0,0,1,.547-0.2c0.26-.078.481-0.142,0.664-0.2a7.264,7.264,0,0,1,.742-0.156,4.355,4.355,0,0,1,1.641,0,3.643,3.643,0,0,1,.9.273,7.139,7.139,0,0,1,.859.469,3.643,3.643,0,0,1,.821.742,8.814,8.814,0,0,1,.82.938,2.6,2.6,0,0,1,.469.976c0.078,0.34.143,0.664,0.195,0.977a4.092,4.092,0,0,1,.039.976,5.4,5.4,0,0,1-.351,1.641c-0.105.287-.183,0.5-0.235,0.625s-0.183.43-.39,0.9c0.52,0.156.846,0.261,0.976,0.312a6.813,6.813,0,0,1,.625.312,7.521,7.521,0,0,1,.7.43q0.273,0.2.664,0.508a4.085,4.085,0,0,1,.664.664,4.913,4.913,0,0,1,.508.82,4.153,4.153,0,0,1,.352,1.055,6.326,6.326,0,0,1,0,2.422,3.407,3.407,0,0,1-.391,1.055q-0.274.468-.547,0.859a3.367,3.367,0,0,1-.664.7c-0.261.209-.482,0.379-0.664,0.508a4.215,4.215,0,0,1-.7.391c-0.287.13-.5,0.222-0.625,0.273s-0.43.156-.9,0.312A1.316,1.316,0,0,0,515.047,523.7Z" transform="translate(-482 -498)"/>
</svg>
