<svg xmlns="http://www.w3.org/2000/svg" width="30" height="30" viewBox="0 0 40 30">
  <defs>
    <style>
      .cls-1 {
        fill: #3c434a;
        fill-rule: evenodd;
      }
    </style>
  </defs>
  <path id="Icon-03" class="cls-1" d="M429.047,504.562l-0.547.547a0.8,0.8,0,0,0,0,1.329l10.312,10.234H416.938a0.828,0.828,0,0,0-.938.937v0.782a0.828,0.828,0,0,0,.938.937h21.874L428.5,529.562a0.8,0.8,0,0,0,0,1.329l0.547,0.547a0.8,0.8,0,0,0,1.328,0l12.813-12.813a0.732,0.732,0,0,0,0-1.25l-12.813-12.813a0.8,0.8,0,0,0-1.328,0h0ZM456,506.75a3.735,3.735,0,0,0-3.75-3.75H441.938a0.829,0.829,0,0,0-.938.938v0.624a0.829,0.829,0,0,0,.938.938H452.25a1.2,1.2,0,0,1,1.25,1.25v22.5a1.2,1.2,0,0,1-1.25,1.25H441.938a0.829,0.829,0,0,0-.938.938v0.624a0.829,0.829,0,0,0,.938.938H452.25a3.735,3.735,0,0,0,3.75-3.75v-22.5Z" transform="translate(-416 -503)"/>
</svg>
